<?xml version="1.0" standalone="no"?><!DOCTYPE svg PUBLIC "-//W3C//DTD SVG 1.1//EN" "http://www.w3.org/Graphics/SVG/1.1/DTD/svg11.dtd"><svg t="1746381269907" class="icon" viewBox="0 0 1024 1024" version="1.1" xmlns="http://www.w3.org/2000/svg" p-id="728" xmlns:xlink="http://www.w3.org/1999/xlink" width="200" height="200"><path d="M687.44690492 28.96391743c-16.67745634 3.66090506-43.32070973 16.4740727-59.18463158 28.47370591-23.38911558 17.69437441-41.08348998 40.47333913-67.52335974 86.43803582-23.38911558 40.88010634-31.32107653 52.26958871-69.15042867 98.64105267-76.87900598 94.57338037-114.91174176 148.87680525-200.33285948 286.77089534-18.71129245 30.10077484-38.03273578 60.6083169-42.91394252 67.31997614-9.76241345 13.83008574-39.45642106 46.16808032-40.88010634 44.74439502-0.61015086-0.40676722 5.49135757-10.77933151 13.21993486-22.98234835 13.21993488-20.54174496 23.5924992-37.2192013 47.59176562-76.67562239l9.76241343-16.06730548v-135.86025396c0-74.64178623-0.61015086-137.08055565-1.22030165-138.91100818-1.01691808-2.8473706-11.18609875-3.25413782-92.53954426-3.2541378-53.69327404 0-91.31924255 0.81353444-91.31924256 1.83045254s5.69474118 5.69474118 12.81316768 10.57594789c12.60978405 8.74549539 59.99816606 46.16808032 66.91320893 53.08312317 3.45752143 3.45752143 3.66090506 13.42331851 3.66090505 185.68923935 0 150.91064138 0.40676722 182.02833426 2.64398696 182.02833424 3.45752143 0 22.77896473-13.62670211 77.2857732-53.8966576 22.57558113-16.67745634 70.77749758-52.26958871 107.18316443-79.11622574 36.40566685-26.6432534 68.3368942-50.64251984 70.9808812-52.87973956 2.64398697-2.44060336 4.47443948-3.25413782 4.06767227-2.03383615-1.01691808 2.64398697-47.9985328 45.76131308-78.09930768 71.59103204-12.20301682 10.57594794-37.82935215 30.71092567-56.94741182 44.94777862-47.9985328 35.59213241-194.63811833 145.82605105-209.89188935 157.82568425-11.59286597 8.74549539-16.06730549 15.25377103-10.77933155 15.25377103 3.45752143 0 39.65980467-13.62670211 66.30305806-25.01618449 59.99816606-25.62633533 158.63921869-76.87900598 174.29975698-90.5057081 1.83045253-1.6270689 3.86428866-2.64398697 4.47443949-2.03383612 0.61015086 0.40676722-7.11842649 9.15226261-16.88083994 19.32144328-17.28760717 17.89775802-18.30452524 18.50790885-39.0496538 26.43986979l-21.35527947 8.13534453-42.50717528 74.0316354c-49.42221811 86.43803581-70.16734672 119.99633211-103.52225935 168.19824856-23.5924992 34.1684471-27.05002064 40.88010634-22.77896476 42.30379165 6.50827565 2.44060336 118.36926318-104.13241022 171.24900276-162.91027459 57.55756269-63.86245471 85.21773417-92.74292785 89.89555728-93.96322953 4.06767226-1.01691808 7.11842649 1.22030169 19.32144327 13.83008573 17.08422354 17.89775802 155.79184811 160.46967123 192.80766581 198.09563973l25.82971893 26.43986981 41.28687359 1.4236853c54.71019209 1.6270689 115.31850898 1.83045253 121.2166338 0.40676722 8.94887901-2.44060336 8.13534454-3.25413782-32.54137819-27.25340424-12.20301682-7.11842649-26.03310254-16.4740727-31.11769292-20.54174499-16.06730549-13.21993488-93.55646231-87.45495391-94.16661315-90.09894087-0.40676722-1.6270689 15.86392188-10.77933151 40.67672274-23.18573198 22.77896473-11.38948236 74.64178623-37.62596854 115.52189259-58.37109712 40.67672274-20.7451286 76.26885514-37.62596854 78.91284214-37.62596854 5.49135757 0 5.28797393-0.61015086 15.66053825 38.6428866 5.89812479 21.96543027 9.35564624 31.72784372 11.59286599 32.13461097 3.05075421 0.61015086 21.96543027-28.27032229 102.30195769-154.97831367 29.69400759-47.18499837 31.72784372-50.84590346 28.27032231-53.48989038-4.27105589-3.05075421-47.18499837-3.45752143-173.4862225-1.2203017-56.33726102 0.81353444-80.53991103 2.03383611-82.98051441 3.66090505-2.8473706 2.03383611 0 6.10150842 22.37219751 29.6940076 20.94851219 22.16881392 25.21956811 27.66017148 23.18573199 29.89739122-2.64398697 3.25413782-63.4556875 32.94814542-67.31997617 32.94814543-1.22030169 0-8.13534454-7.93196093-15.45715463-17.49099078-18.91467606-25.0161845-57.96432993-61.21846772-85.01435052-79.11622572l-8.74549541-5.69474119 34.16844709-13.62670214c18.71129245-7.3218101 41.49025721-17.28760717 50.43913624-21.76204667 81.96359633-41.89702442 136.4704048-113.28467285 150.50387416-197.68887253 4.27105589-25.62633533 3.45752143-70.37073034-2.23721979-107.38654804-3.05075421-20.7451286-3.25413782-26.6432534-1.42368528-36.20228324 5.08459036-23.38911558 19.32144331-46.77823115 34.37183071-56.13387738 4.06767226-2.44060336 23.5924992-10.98271516 43.3207097-18.91467609 19.72821054-7.93196093 35.79551602-15.25377103 35.79551605-16.4740727 0-1.01691808-20.54174496-5.69474118-45.55792949-10.37256431-43.93086055-7.93196093-45.55792946-8.33872815-49.82898535-14.23685295-14.84700382-20.7451286-41.28687357-42.71055887-64.67598916-53.69327402-24.81280087-11.59286597-60.20154963-15.25377103-88.47187199-9.15226261z m88.87863923 69.15042865c7.52519371 3.86428866 10.16918069 8.74549539 10.16918068 18.30452524 0 16.4740727-19.32144331 25.0161845-32.13461099 14.23685298-10.77933151-8.94887901-9.55902983-24.40603363 2.44060336-31.72784377 7.72857733-4.67782314 11.79624959-4.88120672 19.52482695-0.81353445z m-85.21773418 185.48585571c37.62596854 39.8631883 28.67708955 101.08165602-23.59249918 161.6899729-14.23685295 16.4740727-42.50717526 41.49025721-66.91320891 58.77786438-40.88010634 29.28724036-116.94557788 69.15042868-154.36816282 81.15006188-30.91430928 9.76241345-62.64215301 18.71129245-63.65907109 17.89775799-0.40676722-0.40676722 19.72821054-10.98271516 44.54101141-23.38911556 108.2000825-54.30342484 169.01178299-94.57338037 215.38324693-142.57191321 38.64288662-39.8631883 54.10004125-73.42148455 52.06620511-112.87790564-1.01691808-20.7451286-8.33872815-37.42258493-23.5924992-54.50680848l-9.55902982-10.77933151 9.76241346 6.91504286c5.28797393 3.86428866 14.23685295 11.79624959 19.93159411 17.69437439z m-110.64068584 327.85438531c28.47370593 19.11805969 56.33726102 44.33762779 69.96396312 63.8624547 11.99963322 17.08422354 15.66053825 27.05002064 11.79624957 30.9143093-4.88120672 4.88120672-138.09747372 70.16734672-142.97868043 70.16734673-7.3218101 0-55.72711015-50.43913621-63.25230385-65.89629084-11.38948236-23.18573198-8.94887901-43.52409333 8.54211175-74.23501902l9.96579708-17.08422354 30.30415843-8.74549538c16.88083995-4.67782314 34.1684471-10.16918069 38.64288663-11.7962496 4.47443948-1.6270689 9.15226261-3.05075421 10.57594791-3.0507542 1.42368531-0.20338363 13.21993488 7.11842649 26.43986979 15.86392185z m-128.53844389 16.27068909c-1.22030169 1.01691808-4.67782314 2.44060336-8.13534454 3.05075421l-6.10150841 1.22030171 6.10150841-2.84737062c7.11842649-3.66090506 10.98271516-4.06767226 8.13534454-1.4236853z" p-id="729"></path></svg>